<?xml version="1.0" standalone="no"?>
<!DOCTYPE svg PUBLIC "-//W3C//DTD SVG 20010904//EN"
 "http://www.w3.org/TR/2001/REC-SVG-20010904/DTD/svg10.dtd">
<svg version="1.0" xmlns="http://www.w3.org/2000/svg"
 width="500.000000pt" height="500.000000pt" viewBox="0 0 500.000000 500.000000"
 preserveAspectRatio="xMidYMid meet">
<metadata>
Created by potrace 1.14, written by Peter Selinger 2001-2017
</metadata>
<g transform="translate(0.000000,500.000000) scale(0.100000,-0.100000)"
fill="#000000" stroke="none">
<path d="M2679 3598 c-24 -8 -66 -70 -119 -178 -12 -25 -57 -88 -100 -140
-173 -213 -364 -486 -572 -819 -70 -112 -130 -197 -132 -190 -71 203 -146 386
-255 611 -33 70 -61 133 -61 139 0 6 18 63 40 127 68 199 77 240 60 281 -13
32 -90 85 -103 72 -5 -5 -11 -44 -14 -86 -3 -69 -44 -228 -63 -248 -4 -5 -40
38 -81 95 -86 122 -236 274 -300 306 -135 65 -246 -12 -383 -265 -30 -54 -29
-83 1 -83 10 0 52 36 93 80 112 119 154 128 260 56 105 -71 235 -232 303 -376
l26 -56 -35 -94 c-109 -296 -303 -677 -362 -716 -67 -43 -171 -126 -176 -141
-8 -20 24 -56 83 -94 57 -37 74 -36 102 4 53 74 107 110 200 131 55 13 78 27
79 47 0 4 -20 33 -44 66 l-43 59 27 60 c15 32 42 91 60 129 54 116 75 165 126
288 26 64 50 117 54 117 3 0 12 -15 19 -32 8 -18 36 -79 63 -136 26 -56 48
-105 48 -108 0 -3 8 -24 19 -47 25 -55 83 -214 111 -303 22 -68 22 -71 5 -107
-11 -24 -15 -48 -11 -69 6 -33 71 -128 93 -135 6 -2 36 21 67 52 64 64 75 99
55 173 l-12 49 63 114 c172 310 374 623 524 814 28 36 37 43 32 25 -45 -149
-145 -596 -171 -760 -3 -19 -10 -55 -15 -80 -5 -25 -12 -61 -14 -80 -3 -19 -9
-56 -14 -81 -16 -85 -7 -103 82 -161 63 -41 96 -47 116 -23 11 13 30 87 46
175 6 33 41 152 63 215 19 53 18 85 -3 85 -17 0 -37 -25 -70 -90 -41 -79 -43
-79 -30 12 6 46 14 101 17 123 7 47 34 199 42 235 3 14 8 36 11 50 55 265 212
661 290 730 28 24 43 30 78 29 89 -4 81 26 -24 96 -80 53 -115 65 -151 53z"/>
<path d="M3607 3603 c-6 -12 -19 -64 -23 -98 -2 -16 -7 -32 -12 -35 -4 -4 -50
-22 -102 -40 -287 -99 -586 -292 -641 -414 -15 -35 -16 -43 -2 -90 20 -72 108
-248 137 -276 26 -24 56 -22 56 5 0 8 -11 53 -25 100 -36 124 -25 172 57 255
90 92 169 143 327 210 53 23 104 45 113 51 19 10 48 12 48 3 0 -7 -47 -174
-71 -254 -36 -115 -36 -115 -75 -118 -45 -3 -74 -18 -74 -39 0 -9 14 -39 31
-67 29 -47 31 -53 19 -86 -25 -70 -163 -416 -179 -448 l-17 -34 -25 36 c-34
52 -62 46 -67 -14 -2 -24 -21 -94 -43 -155 -21 -60 -39 -119 -39 -129 0 -11
21 -39 46 -63 69 -67 88 -60 142 50 54 112 149 348 217 540 l52 149 84 -113
c98 -133 289 -368 368 -454 112 -122 388 -392 443 -434 120 -90 180 -71 282
87 68 107 55 132 -41 82 -55 -29 -64 -31 -100 -21 -92 25 -261 171 -473 411
-36 40 -70 78 -75 84 -62 66 -317 398 -390 509 l-38 58 40 132 c38 121 55 183
52 189 0 2 5 17 11 33 7 17 14 39 16 50 15 75 13 73 78 95 34 11 72 22 84 25
12 2 25 6 30 9 8 5 127 18 182 20 85 3 171 -35 188 -84 15 -42 3 -121 -27
-186 -57 -122 -193 -280 -282 -329 -45 -24 -58 -27 -107 -21 -110 13 -117 13
-120 -9 -6 -41 140 -124 216 -125 95 0 204 81 327 245 102 137 145 239 139
329 -6 68 -29 110 -90 163 -30 25 -54 50 -54 55 0 22 -57 88 -94 109 -33 18
-48 21 -108 15 -39 -3 -123 -18 -186 -32 -94 -21 -117 -23 -123 -12 -37 66
-71 99 -82 81z"/>
</g>
</svg>
