<?xml version="1.0" standalone="no"?>
<!DOCTYPE svg PUBLIC "-//W3C//DTD SVG 20010904//EN"
 "http://www.w3.org/TR/2001/REC-SVG-20010904/DTD/svg10.dtd">
<svg version="1.0" xmlns="http://www.w3.org/2000/svg"
 width="864.000000pt" height="864.000000pt" viewBox="0 0 864.000000 864.000000"
 preserveAspectRatio="xMidYMid meet">
<metadata>
Created by potrace 1.14, written by Peter Selinger 2001-2017
</metadata>
<g transform="translate(0.000000,864.000000) scale(0.100000,-0.100000)"
fill="#000000" stroke="none">
<path d="M6376 6439 c-40 -11 -71 -43 -95 -99 -27 -63 -42 -183 -25 -214 11
-23 10 -24 -75 -46 -531 -140 -1035 -412 -1326 -716 -106 -111 -157 -220 -150
-321 10 -141 226 -601 332 -707 71 -72 210 -74 268 -4 24 29 27 38 22 87 -3
31 -20 99 -37 150 -68 211 -78 298 -39 378 34 71 204 235 324 314 142 94 314
182 483 248 l52 21 -6 -28 c-9 -38 -68 -238 -105 -354 -17 -53 -36 -101 -42
-106 -7 -5 -34 -13 -62 -17 -126 -18 -197 -82 -189 -171 4 -48 45 -143 90
-209 l27 -40 -17 -50 c-59 -172 -188 -511 -241 -635 -20 -47 -41 -95 -46 -107
l-8 -23 -27 25 c-48 44 -157 29 -206 -29 -25 -30 -36 -71 -41 -146 -5 -77 -32
-170 -97 -340 -62 -160 -73 -205 -66 -259 8 -59 42 -114 109 -180 197 -193
325 -169 445 81 82 169 203 462 342 823 23 61 48 124 55 140 7 17 32 83 55
147 24 65 46 115 50 113 5 -3 40 -49 79 -103 119 -164 385 -502 501 -636 228
-265 341 -387 585 -631 231 -231 270 -268 425 -404 241 -211 367 -250 536
-163 72 37 186 159 268 285 99 152 120 213 102 293 -13 61 -68 96 -147 96 -49
-1 -62 -6 -171 -74 -62 -39 -111 -43 -175 -13 -125 57 -246 157 -498 410 -200
201 -202 203 -406 435 -216 245 -623 750 -605 750 3 0 20 -9 38 -19 121 -71
327 -88 446 -39 93 39 163 84 263 171 148 129 351 380 457 565 23 41 42 76 42
78 0 2 11 27 24 56 110 245 97 482 -36 651 -17 20 -63 64 -103 97 -43 35 -77
72 -85 92 -52 129 -166 242 -284 282 -117 40 -302 24 -635 -55 -137 -32 -141
-33 -141 -20 0 19 -61 101 -97 130 -42 35 -97 51 -137 40z m962 -625 c65 -17
118 -54 134 -92 37 -93 -19 -271 -142 -451 -198 -291 -398 -472 -538 -485 -22
-3 -73 4 -114 15 -129 34 -204 24 -257 -37 l-31 -34 -35 53 -35 53 25 74 c25
73 62 192 111 357 13 45 44 162 69 259 24 97 46 178 47 179 2 1 55 19 118 39
124 39 232 63 320 73 30 3 57 7 58 8 12 10 223 1 270 -11z"/>
<path d="M4272 6408 c-23 -11 -59 -40 -80 -63 -43 -49 -139 -209 -207 -344
-30 -60 -76 -129 -127 -190 -108 -130 -104 -125 -184 -226 -313 -397 -738
-1014 -1039 -1509 -22 -36 -58 -96 -81 -132 l-40 -65 -29 83 c-80 235 -237
592 -422 964 l-115 232 81 238 c103 307 133 420 133 509 0 119 -34 178 -142
252 -142 96 -232 97 -280 3 -19 -37 -24 -77 -35 -250 -8 -144 -29 -251 -50
-252 -5 0 -14 8 -20 18 -5 11 -12 21 -16 24 -3 3 -25 34 -49 70 -123 179 -323
400 -445 490 -77 57 -175 109 -247 131 -86 26 -224 21 -292 -9 -167 -75 -325
-251 -488 -542 -86 -154 -102 -198 -94 -257 8 -60 29 -91 74 -110 44 -18 124
-13 170 11 28 14 129 113 244 238 54 59 113 98 147 98 97 0 351 -203 504 -402
74 -98 156 -230 218 -352 l51 -101 -46 -130 c-26 -71 -51 -139 -56 -150 -5
-11 -29 -69 -53 -130 -118 -292 -306 -676 -466 -953 -81 -140 -84 -144 -159
-194 -199 -133 -332 -249 -357 -311 -36 -89 5 -158 157 -270 120 -88 188 -117
262 -111 69 6 108 34 141 102 66 134 182 207 380 241 223 38 249 184 73 402
l-38 47 81 168 c44 93 115 246 156 339 104 235 107 242 134 310 12 33 27 64
31 69 4 6 8 18 8 29 0 29 18 10 44 -46 13 -29 44 -95 69 -147 45 -96 167 -385
167 -396 0 -3 7 -20 15 -37 20 -45 90 -252 129 -383 33 -110 33 -111 16 -147
-53 -108 -57 -173 -17 -261 56 -121 181 -283 237 -306 44 -18 97 0 167 57 108
88 199 200 227 281 17 48 13 146 -9 233 l-17 66 93 169 c135 247 266 467 497
839 113 182 216 346 229 366 12 19 23 40 23 46 0 6 4 13 8 15 5 2 23 29 41 61
18 31 34 57 35 57 2 0 -10 -46 -25 -102 -29 -103 -94 -384 -105 -455 -3 -21
-8 -41 -10 -44 -2 -4 -6 -24 -10 -45 -3 -22 -10 -59 -15 -84 -20 -89 -106
-540 -115 -600 -3 -19 -7 -42 -10 -49 -3 -8 -7 -35 -10 -60 -3 -26 -12 -77
-20 -116 -23 -109 -28 -209 -14 -260 16 -58 100 -142 213 -213 136 -85 218
-107 298 -81 91 31 117 89 175 389 25 129 81 313 154 515 25 69 23 145 -6 194
-37 63 -154 77 -220 26 l-36 -28 6 34 c61 309 181 753 285 1049 140 404 375
904 443 947 7 4 56 8 108 8 109 0 142 12 177 64 28 42 30 103 4 151 -34 64
-286 239 -403 280 -74 26 -150 25 -206 -2z"/>
</g>
</svg>
